<svg width="14" height="14" viewBox="0 0 14 14" fill="none" xmlns="http://www.w3.org/2000/svg">
<path d="M13.7806 12.9629L12.6247 12.0114C11.9963 11.4942 11.4615 10.8728 11.0433 10.1746C10.4655 9.20997 9.66715 8.39597 8.71416 7.79954L8.24873 7.52854C8.08926 7.41767 7.97806 7.24489 7.96225 7.04996C7.95209 6.92428 7.98222 6.81192 8.05247 6.71304C8.29484 6.37146 9.61405 4.9517 9.8436 4.76177C10.1392 4.5174 10.4687 4.31415 10.7743 4.08144C10.8177 4.04831 10.8614 4.01535 10.9043 3.98173C10.9058 3.98023 10.908 3.97906 10.9093 3.97773C11.0073 3.90033 11.0999 3.81809 11.1735 3.72055C11.5319 3.30556 11.5247 2.95482 11.5247 2.95482C11.5247 2.95482 11.525 2.95449 11.5252 2.95432C11.4871 2.86094 11.3499 2.57029 11.0711 2.43396C11.3176 2.42913 11.5958 2.52152 11.722 2.64503C11.8736 2.40716 11.9717 2.25285 12.1241 1.9935C12.1604 1.93191 12.1797 1.81805 12.1103 1.75429C12.1103 1.75429 12.11 1.75429 12.1097 1.75429C12.1097 1.75429 12.1097 1.75396 12.1097 1.75363C12.1083 1.7523 12.1067 1.7513 12.1053 1.74997C12.104 1.74863 12.1032 1.74714 12.1017 1.74564C12.1017 1.74564 12.1013 1.74564 12.101 1.74564C12.101 1.74564 12.101 1.74531 12.101 1.74497C12.0982 1.74214 12.095 1.73998 12.092 1.73731C12.0902 1.73548 12.0887 1.73332 12.087 1.73132C12.085 1.72966 12.0829 1.72816 12.081 1.72633C12.0782 1.7235 12.0764 1.72 12.0734 1.71734C12.0734 1.71734 12.0729 1.71717 12.0727 1.71734C12.0727 1.71734 12.0727 1.71701 12.0727 1.71667C12.0714 1.71534 12.0697 1.71434 12.0684 1.71301C12.067 1.71168 12.066 1.71002 12.0647 1.70868C12.0647 1.70868 12.0642 1.70852 12.064 1.70868C12.064 1.70868 12.064 1.70835 12.064 1.70802C12.0003 1.6386 11.8864 1.65791 11.8248 1.6942C11.4876 1.89262 11.1595 2.1062 10.8637 2.29347C10.8637 2.29347 10.5131 2.28614 10.098 2.6447C10.0002 2.71844 9.91801 2.811 9.84077 2.90888C9.83928 2.91037 9.83794 2.91237 9.83678 2.91387C9.80299 2.95665 9.77003 3.00026 9.73707 3.04388C9.50419 3.34967 9.3011 3.67893 9.05674 3.97457C8.86697 4.20429 7.44705 5.52333 7.10547 5.7657C7.00659 5.83595 6.89439 5.86624 6.76855 5.85592C6.57379 5.84028 6.40083 5.72891 6.28997 5.56944L6.01897 5.10401C5.42253 4.15068 4.60853 3.35266 3.64388 2.77487C2.94574 2.35672 2.3245 1.82171 1.80714 1.19348L0.855641 0.0375688C0.808699 -0.0193612 0.718809 -0.0100393 0.685184 0.0555468C0.576983 0.266288 0.370404 0.711242 0.212098 1.30967C0.208269 1.32382 0.211599 1.3388 0.220921 1.35012C0.417679 1.58783 0.873286 2.11169 1.41595 2.55481C1.45374 2.58561 1.42278 2.64653 1.37584 2.63355C0.907744 2.50604 0.452636 2.30129 0.112054 2.12684C0.0842553 2.11269 0.0506299 2.13033 0.0466348 2.16129C-0.00630019 2.58544 -0.0199503 3.0512 0.035981 3.54227C0.0376456 3.55825 0.0478002 3.57206 0.0626153 3.57855C0.450972 3.74751 1.07204 3.99271 1.72407 4.14869C1.77135 4.16001 1.76985 4.22809 1.72208 4.23724C1.21437 4.33279 0.682687 4.3541 0.250551 4.34844C0.220255 4.34811 0.197949 4.37674 0.206106 4.40587C0.292832 4.71233 0.410355 5.02395 0.565331 5.33773C0.629419 5.47872 0.699167 5.61705 0.773909 5.75238C0.786726 5.77552 0.811529 5.78934 0.837996 5.78817C1.19472 5.7707 1.62586 5.73307 2.05933 5.6565C2.13324 5.64352 2.17286 5.74073 2.11043 5.78251C1.81613 5.97927 1.50218 6.14873 1.21021 6.28823C1.17109 6.30704 1.15844 6.35698 1.18424 6.39177C1.35769 6.62681 1.54846 6.8492 1.7557 7.05645C1.7557 7.05645 2.77612 8.10749 2.80392 8.18989C3.39935 7.58014 4.37815 6.9043 5.45899 6.31419C4.01143 7.49208 3.20442 8.36168 2.79826 8.85574L2.5151 9.25309C2.36795 9.4595 2.24027 9.67873 2.13357 9.90861C1.77651 10.6768 1.1879 12.2306 1.1879 12.2306C1.14279 12.3523 1.17958 12.4723 1.25781 12.5505C1.25964 12.5524 1.26148 12.5542 1.26347 12.5559C1.2653 12.5577 1.26697 12.5597 1.2688 12.5615C1.3472 12.6399 1.46706 12.6765 1.58874 12.6314C1.58874 12.6314 3.14217 12.0428 3.91072 11.6858C4.14061 11.5791 4.36 11.4512 4.56625 11.3042L5.00388 10.9924C5.2356 10.8273 5.55287 10.8536 5.75413 11.0549L6.76289 12.0636C6.97013 12.2709 7.19253 12.4616 7.42757 12.6351C7.46253 12.6607 7.5123 12.6482 7.53111 12.6091C7.67077 12.3173 7.84023 12.003 8.03682 11.7089C8.07861 11.6465 8.17598 11.6863 8.16283 11.76C8.0861 12.1936 8.04881 12.6248 8.03116 12.9813C8.02983 13.0076 8.04381 13.0326 8.06695 13.0454C8.20212 13.1203 8.34045 13.1901 8.48161 13.254C8.79539 13.409 9.10718 13.5267 9.41347 13.6132C9.4426 13.6214 9.47123 13.5991 9.4709 13.5688C9.46507 13.1365 9.48638 12.6048 9.58209 12.0973C9.59108 12.0493 9.65916 12.0478 9.67065 12.0953C9.82646 12.7475 10.0717 13.3685 10.2408 13.7567C10.2473 13.7715 10.2609 13.7815 10.2771 13.7834C10.7681 13.8393 11.2339 13.8256 11.658 13.7727C11.6892 13.7689 11.7068 13.7352 11.6925 13.7073C11.518 13.3667 11.3133 12.9113 11.1858 12.4435C11.173 12.3964 11.2337 12.3656 11.2645 12.4034C11.7076 12.9461 12.2315 13.4017 12.4692 13.5984C12.4805 13.6077 12.4957 13.6109 12.5097 13.6072C13.1083 13.4491 13.5532 13.2425 13.7638 13.1342C13.8294 13.1005 13.8387 13.0106 13.7818 12.9637L13.7806 12.9629Z" fill="#F9FAFB"/>
</svg>
